<svg width="20" height="20" viewBox="0 0 20 20" fill="none" xmlns="http://www.w3.org/2000/svg">
<g id="Grid" clip-path="url(#clip0_108_329)">
<path id="Icon" d="M8.95251 2.10527C8.95251 1.76009 8.67269 1.48027 8.32751 1.48027H2.10529C1.76011 1.48027 1.48029 1.76009 1.48029 2.10527V8.32749C1.48029 8.67267 1.76011 8.95249 2.10529 8.95249H8.32751C8.67269 8.95249 8.95251 8.67267 8.95251 8.32749V2.10527ZM18.7303 2.10527C18.7303 1.76009 18.4505 1.48027 18.1053 1.48027H11.8831C11.5379 1.48027 11.2581 1.76009 11.2581 2.10527V8.32749C11.2581 8.67267 11.5379 8.95249 11.8831 8.95249H18.1053C18.4505 8.95249 18.7303 8.67267 18.7303 8.32749V2.10527ZM18.7303 11.883C18.7303 11.5379 18.4505 11.258 18.1053 11.258H11.8831C11.5379 11.258 11.2581 11.5379 11.2581 11.883V18.1053C11.2581 18.4504 11.5379 18.7303 11.8831 18.7303H18.1053C18.4505 18.7303 18.7303 18.4504 18.7303 18.1053V11.883ZM8.95251 11.883C8.95251 11.5379 8.67269 11.258 8.32751 11.258H2.10529C1.76011 11.258 1.48029 11.5379 1.48029 11.883V18.1053C1.48029 18.4504 1.76011 18.7303 2.10529 18.7303H8.32751C8.67269 18.7303 8.95251 18.4504 8.95251 18.1053V11.883Z" stroke="#1E1E1E" stroke-width="1.25" stroke-linecap="round" stroke-linejoin="round"/>
</g>
<defs>
<clipPath id="clip0_108_329">
<rect width="20" height="20" fill="white"/>
</clipPath>
</defs>
</svg>
